<svg width="21" height="21" viewBox="0 0 21 21" fill="none" xmlns="http://www.w3.org/2000/svg">
<g filter="url(#filter0_d_643_1682)">
<circle cx="10.4775" cy="6.6699" r="4.72752" fill="#F53838"/>
</g>
<path d="M11.9547 6.66992C11.9547 7.06174 11.7991 7.43751 11.522 7.71457C11.2449 7.99163 10.8692 8.14728 10.4774 8.14728C10.0855 8.14728 9.70976 7.99163 9.43271 7.71457C9.15565 7.43751 9 7.06174 9 6.66992C9 6.58571 9.00886 6.50347 9.02413 6.42369H8.50755V8.39202C8.50755 8.52893 8.61835 8.63973 8.75525 8.63973H12.2C12.2656 8.6396 12.3284 8.61344 12.3748 8.567C12.4211 8.52056 12.4472 8.45763 12.4472 8.39202V6.42369H11.9306C11.9458 6.50347 11.9547 6.58571 11.9547 6.66992ZM10.4774 7.65482C10.6067 7.65479 10.7348 7.62928 10.8543 7.57974C10.9738 7.5302 11.0824 7.45761 11.1739 7.36611C11.2653 7.2746 11.3379 7.16598 11.3874 7.04645C11.4368 6.92691 11.4623 6.7988 11.4623 6.66943C11.4622 6.54006 11.4367 6.41196 11.3872 6.29245C11.3376 6.17293 11.265 6.06435 11.1735 5.97289C11.082 5.88144 10.9734 5.8089 10.8539 5.75942C10.7343 5.70994 10.6062 5.68449 10.4769 5.68452C10.2156 5.68459 9.96503 5.78844 9.78033 5.97324C9.59562 6.15804 9.49189 6.40864 9.49196 6.66992C9.49202 6.9312 9.59588 7.18175 9.78068 7.36645C9.96547 7.55116 10.2161 7.65489 10.4774 7.65482ZM11.6592 5.63577H12.2497C12.2889 5.63577 12.3265 5.62022 12.3543 5.59253C12.3821 5.56484 12.3978 5.52726 12.3979 5.48804V4.89759C12.3979 4.85827 12.3823 4.82057 12.3545 4.79277C12.3267 4.76498 12.289 4.74936 12.2497 4.74936H11.6592C11.6199 4.74936 11.5822 4.76498 11.5544 4.79277C11.5266 4.82057 11.511 4.85827 11.511 4.89759V5.48804C11.5115 5.56929 11.578 5.63577 11.6592 5.63577ZM10.4774 1.94238C9.22353 1.94238 8.02107 2.44046 7.13448 3.32705C6.2479 4.21363 5.74982 5.4161 5.74982 6.66992C5.74982 7.92374 6.2479 9.12621 7.13448 10.0128C8.02107 10.8994 9.22353 11.3975 10.4774 11.3975C11.0982 11.3975 11.7129 11.2752 12.2865 11.0376C12.8601 10.8 13.3812 10.4518 13.8202 10.0128C14.2592 9.5738 14.6074 9.05264 14.845 8.47907C15.0826 7.9055 15.2049 7.29075 15.2049 6.66992C15.2049 6.04909 15.0826 5.43434 14.845 4.86077C14.6074 4.2872 14.2592 3.76604 13.8202 3.32705C13.3812 2.88805 12.8601 2.53983 12.2865 2.30225C11.7129 2.06466 11.0982 1.94238 10.4774 1.94238ZM12.9396 8.58507C12.9396 8.88595 12.6934 9.13218 12.3925 9.13218H8.56221C8.26132 9.13218 8.0151 8.88595 8.0151 8.58507V4.75478C8.0151 4.45389 8.26132 4.20766 8.56221 4.20766H12.3925C12.6934 4.20766 12.9396 4.45389 12.9396 4.75478V8.58507Z" fill="white"/>
<defs>
<filter id="filter0_d_643_1682" x="0.684721" y="0.535378" width="19.5855" height="19.5855" filterUnits="userSpaceOnUse" color-interpolation-filters="sRGB">
<feFlood flood-opacity="0" result="BackgroundImageFix"/>
<feColorMatrix in="SourceAlpha" type="matrix" values="0 0 0 0 0 0 0 0 0 0 0 0 0 0 0 0 0 0 127 0" result="hardAlpha"/>
<feOffset dy="3.65821"/>
<feGaussianBlur stdDeviation="2.53261"/>
<feColorMatrix type="matrix" values="0 0 0 0 0.0658854 0 0 0 0 0.0730469 0 0 0 0 0.1375 0 0 0 0.08 0"/>
<feBlend mode="normal" in2="BackgroundImageFix" result="effect1_dropShadow_643_1682"/>
<feBlend mode="normal" in="SourceGraphic" in2="effect1_dropShadow_643_1682" result="shape"/>
</filter>
</defs>
</svg>
