<svg width="21" height="21" viewBox="0 0 21 21" fill="none" xmlns="http://www.w3.org/2000/svg">
<g filter="url(#filter0_d_643_1679)">
<circle cx="10.3943" cy="6.6699" r="4.72752" fill="#F53838"/>
</g>
<path d="M10.3942 1.94238C7.78325 1.94238 5.66669 4.05894 5.66669 6.66992C5.66669 9.2809 7.78325 11.3975 10.3942 11.3975C13.0052 11.3975 15.1218 9.2809 15.1218 6.66992C15.1218 4.05894 13.0052 1.94238 10.3942 1.94238ZM12.3172 5.81502C12.3192 5.85541 12.3197 5.89579 12.3197 5.93518C12.3197 7.16631 11.3836 8.58507 9.67081 8.58507C9.16472 8.58591 8.66915 8.44055 8.24369 8.16648C8.31608 8.17535 8.39044 8.17879 8.46578 8.17879C8.9021 8.17879 9.30344 8.03057 9.62206 7.7804C9.42789 7.77659 9.23976 7.71229 9.08386 7.59648C8.92797 7.48066 8.8121 7.3191 8.75239 7.1343C8.89183 7.16082 9.03548 7.15526 9.17245 7.11805C8.96171 7.07544 8.77219 6.96124 8.63603 6.79484C8.49987 6.62843 8.42545 6.42006 8.4254 6.20505V6.19372C8.55098 6.26316 8.69477 6.30551 8.84743 6.31043C8.64986 6.17891 8.51 5.97688 8.45645 5.74565C8.4029 5.51443 8.43971 5.27148 8.55935 5.0665C8.79324 5.35409 9.08492 5.58936 9.41551 5.75707C9.7461 5.92478 10.1082 6.0212 10.4784 6.04007C10.4314 5.84029 10.4516 5.63055 10.5361 5.44347C10.6205 5.25639 10.7644 5.10244 10.9453 5.00556C11.1263 4.90869 11.3342 4.8743 11.5367 4.90777C11.7392 4.94123 11.9249 5.04066 12.0651 5.19059C12.2735 5.14936 12.4733 5.07293 12.6561 4.96456C12.5866 5.18032 12.4412 5.36353 12.2468 5.48016C12.4314 5.45792 12.6117 5.4083 12.7816 5.33291C12.6568 5.51999 12.4995 5.68326 12.3172 5.81502Z" fill="white"/>
<defs>
<filter id="filter0_d_643_1679" x="0.601592" y="0.535378" width="19.5855" height="19.5855" filterUnits="userSpaceOnUse" color-interpolation-filters="sRGB">
<feFlood flood-opacity="0" result="BackgroundImageFix"/>
<feColorMatrix in="SourceAlpha" type="matrix" values="0 0 0 0 0 0 0 0 0 0 0 0 0 0 0 0 0 0 127 0" result="hardAlpha"/>
<feOffset dy="3.65821"/>
<feGaussianBlur stdDeviation="2.53261"/>
<feColorMatrix type="matrix" values="0 0 0 0 0.0658854 0 0 0 0 0.0730469 0 0 0 0 0.1375 0 0 0 0.08 0"/>
<feBlend mode="normal" in2="BackgroundImageFix" result="effect1_dropShadow_643_1679"/>
<feBlend mode="normal" in="SourceGraphic" in2="effect1_dropShadow_643_1679" result="shape"/>
</filter>
</defs>
</svg>
